<?xml version="1.0" encoding="UTF-8"?><svg xmlns="http://www.w3.org/2000/svg" viewBox="0 0 49.73 48.19"><defs><style>.d{fill:#fff;}.e{fill:#a6b6bc;}.f{fill:#bed0d6;}.g{fill:#1d1d1b;}.h{fill:#545b5e;}.i{opacity:.5;}.j{isolation:isolate;}.k{opacity:.16;}.k,.l,.m,.n{mix-blend-mode:multiply;}.l{opacity:.25;}.m{opacity:.23;}.n{opacity:.3;}</style></defs><g class="j"><g id="a"/><g id="b"><g id="c"><g><g><g class="n"><path class="g" d="M26.35,43.67l.25-.05,.24-.07c7.37-2.04,14.46-9.14,16.5-16.53l.07-.24,.05-.25c1.79-8.31,2.8-16.09,3.06-23.8-7.33,.3-14.87,1.29-22.92,3.03l-.24,.05-.24,.07C15.74,7.92,8.65,15.02,6.61,22.41l-.07,.24-.05,.25c-1.79,8.31-2.8,16.09-3.06,23.8,7.33-.3,14.87-1.29,22.92-3.03Z"/></g><g><path class="e" d="M2.44,42.53c.23-6.97,1.14-14.08,2.79-21.73l.05-.22,.07-.28c1.93-7,8.65-13.74,15.64-15.67l.22-.06,.27-.06c7.34-1.59,14.19-2.49,20.93-2.77l1.08-.04-.04,1.08c-.23,6.97-1.15,14.08-2.79,21.74l-.05,.22-.08,.28c-1.93,7-8.65,13.74-15.64,15.67l-.21,.06-.28,.06c-7.33,1.59-14.18,2.49-20.93,2.77l-1.08,.04,.04-1.08Z"/><path class="g" d="M42.46,2.73c-.23,6.98-1.15,14.03-2.77,21.56l-.05,.22-.06,.22c-1.84,6.69-8.27,13.13-14.94,14.97l-.22,.06-.22,.05c-7.29,1.58-14.12,2.47-20.76,2.75,.23-6.98,1.15-14.03,2.77-21.56l.05-.22,.06-.22c1.84-6.69,8.27-13.13,14.95-14.97l.22-.06,.22-.05c7.29-1.57,14.12-2.47,20.76-2.74m2.07-2.09l-2.15,.09c-6.8,.28-13.7,1.19-21.1,2.79l-.23,.05h-.05l-.05,.02-.22,.06C13.42,5.67,6.4,12.71,4.39,20.03l-.06,.22v.05l-.03,.05-.05,.22c-1.66,7.72-2.58,14.89-2.81,21.92l-.07,2.15,2.15-.09c6.8-.28,13.71-1.19,21.1-2.79l.22-.05h.06l.06-.03,.22-.06c7.29-2.02,14.31-9.05,16.33-16.37l.06-.22,.02-.06v-.06l.06-.22c1.66-7.71,2.58-14.88,2.81-21.9l.07-2.15h0Z"/></g><g class="l"><path class="g" d="M40.36,2.84c-.33,6.3-1.22,12.68-2.67,19.45l-.05,.22-.06,.22c-1.84,6.69-8.27,13.13-14.94,14.97l-.22,.06-.22,.05c-6.52,1.41-12.68,2.27-18.66,2.64-.04,.7-.07,1.41-.1,2.11,6.64-.27,13.47-1.17,20.76-2.75l.22-.05,.22-.06c6.68-1.85,13.1-8.28,14.94-14.97l.06-.22,.05-.22c1.62-7.52,2.54-14.57,2.77-21.56-.7,.03-1.4,.07-2.1,.11Z"/></g><g class="i"><path class="d" d="M7.94,22.4l.05-.22,.06-.22c1.84-6.69,8.27-13.13,14.95-14.97l.22-.06,.22-.05c6.63-1.43,12.88-2.3,18.96-2.65,.02-.5,.05-.99,.07-1.49-6.64,.27-13.47,1.17-20.76,2.74l-.22,.05-.22,.06c-6.68,1.84-13.1,8.28-14.95,14.97l-.06,.22-.05,.22c-1.62,7.52-2.54,14.57-2.77,21.56,.6-.02,1.2-.06,1.8-.09,.31-6.5,1.2-13.08,2.7-20.07Z"/></g><g><g class="m"><path class="g" d="M49.37,7.75c0,3.31-2.67,5.99-5.96,5.99s-5.96-2.68-5.96-5.99,2.67-5.99,5.96-5.99,5.96,2.68,5.96,5.99Z"/></g><g><path class="f" d="M43.41,11.92c-1.49,0-2.89-.58-3.94-1.64-2.17-2.18-2.17-5.72,0-7.9,1.05-1.06,2.45-1.64,3.94-1.64s2.89,.58,3.94,1.64c2.17,2.18,2.17,5.72,0,7.9-1.05,1.06-2.45,1.64-3.94,1.64Z"/><path class="g" d="M43.41,1.5c1.23,0,2.47,.47,3.41,1.42,1.88,1.89,1.88,4.95,0,6.84-.94,.94-2.17,1.42-3.41,1.42s-2.47-.47-3.41-1.42c-1.88-1.89-1.88-4.95,0-6.84,.94-.94,2.17-1.42,3.41-1.42m0-1.5c-1.69,0-3.28,.66-4.47,1.86-2.46,2.47-2.46,6.49,0,8.96,1.19,1.2,2.78,1.86,4.47,1.86s3.28-.66,4.47-1.86c2.46-2.47,2.46-6.49,0-8.96-1.19-1.2-2.78-1.86-4.47-1.86h0Z"/></g><path class="d" d="M41.16,9.85c-1.88-1.89-1.88-4.95,0-6.84,.89-.89,2.04-1.36,3.21-1.41-1.53-.31-3.17,.13-4.36,1.32-1.88,1.89-1.88,4.95,0,6.84,.99,.99,2.3,1.46,3.6,1.41-.9-.18-1.76-.62-2.45-1.32Z"/><g class="k"><path class="g" d="M45.67,2.83c1.88,1.89,1.88,4.95,0,6.84-.89,.89-2.04,1.36-3.21,1.41,1.53,.31,3.18-.13,4.36-1.32,1.88-1.89,1.88-4.95,0-6.84-.99-.99-2.3-1.46-3.6-1.41,.9,.18,1.75,.62,2.45,1.32Z"/></g><path class="h" d="M46.02,10.44c.29-.19,.57-.4,.82-.66,.28-.28,.52-.6,.71-.93l-6.66-6.69c-.33,.2-.64,.43-.92,.72-.25,.25-.47,.53-.65,.82l6.7,6.73Z"/><path class="g" d="M39.64,3.13c-.18,.21-.36,.43-.52,.66l6.81,6.85c.22-.16,.44-.34,.65-.52l-6.95-6.99Z"/><path class="g" d="M40.31,2.47c.22-.19,.43-.37,.66-.53l6.81,6.85c-.16,.23-.34,.45-.52,.66l-6.95-6.99Z"/></g><g><g class="m"><path class="g" d="M8.28,36.07c3.29,.3,5.72,3.2,5.42,6.48-.3,3.28-3.21,5.7-6.51,5.4s-5.72-3.21-5.42-6.49,3.21-5.7,6.51-5.39Z"/></g><g><path class="f" d="M6.34,47.44c-1.67,0-3.23-.73-4.3-2-.96-1.14-1.41-2.59-1.27-4.07,.14-1.48,.84-2.82,1.99-3.77,1-.83,2.27-1.29,3.57-1.29,1.67,0,3.23,.73,4.3,2.01,.96,1.14,1.41,2.59,1.27,4.07-.13,1.48-.84,2.82-1.99,3.77-1,.83-2.27,1.29-3.57,1.29Z"/><path class="g" d="M6.33,37.06c1.39,0,2.77,.59,3.72,1.74,1.71,2.04,1.43,5.08-.62,6.78-.9,.75-2,1.11-3.09,1.11-1.39,0-2.77-.59-3.72-1.74-1.71-2.05-1.43-5.08,.62-6.78,.9-.75,2-1.11,3.09-1.11m0-1.5h0c-1.48,0-2.91,.52-4.05,1.46C.98,38.1,.18,39.62,.03,41.3c-.15,1.68,.36,3.32,1.44,4.62,1.21,1.45,2.98,2.27,4.87,2.27,1.47,0,2.91-.52,4.05-1.46,1.3-1.08,2.1-2.6,2.26-4.28s-.36-3.32-1.44-4.62c-1.21-1.45-2.98-2.27-4.87-2.27h0Z"/></g><path class="d" d="M9.63,44.44c-2.05,1.7-5.1,1.42-6.81-.62-.81-.97-1.17-2.16-1.11-3.32-.45,1.49-.16,3.17,.92,4.46,1.71,2.04,4.76,2.32,6.81,.62,1.08-.9,1.66-2.16,1.73-3.46-.26,.88-.78,1.69-1.54,2.32Z"/><g class="k"><path class="g" d="M3.05,39.31c2.05-1.7,5.1-1.42,6.81,.62,.81,.97,1.17,2.16,1.11,3.33,.45-1.49,.16-3.17-.92-4.46-1.71-2.05-4.76-2.32-6.81-.62-1.08,.9-1.66,2.16-1.73,3.46,.26-.88,.78-1.69,1.54-2.32Z"/></g><path class="h" d="M10.66,39.65c-.16-.31-.35-.6-.58-.88-.26-.31-.55-.57-.86-.79l-7.27,6.03c.17,.35,.37,.68,.63,.98,.23,.28,.49,.52,.76,.73l7.32-6.06Z"/><path class="g" d="M2.8,45.34c.2,.2,.4,.4,.61,.58l7.44-6.16c-.14-.24-.29-.47-.46-.7l-7.59,6.28Z"/><path class="g" d="M2.2,44.62c-.17-.23-.33-.47-.46-.71l7.44-6.16c.21,.18,.41,.38,.61,.58l-7.59,6.28Z"/></g></g><g><g><path class="g" d="M15.37,23.53l-1.6,2.5-2.84-.72c-.41-.18-.89,.01-1.07,.42-.18,.41,.01,.89,.45,1.08,.96,.27,3.48,.98,3.55,1.01,.2,.09,.42,.09,.62,0,.21-.08,.37-.23,.45-.42,.05-.08,1.39-2.32,1.92-3.2,.09-.21,.09-.43,0-.62s-.23-.36-.43-.45c-.41-.18-.89,.01-1.06,.4Z"/><path class="g" d="M14.51,21.35l-2.87-.73-1.58,2.47c-.18,.41-.66,.6-1.07,.42-.41-.18-.6-.66-.41-1.09,.51-.86,1.86-3.1,1.9-3.17,.09-.2,.25-.36,.45-.43,.2-.08,.43-.08,.61,0,.09,.03,2.61,.74,3.59,1.02,.21,.09,.36,.25,.43,.45s.08,.42,0,.62c-.18,.41-.66,.6-1.04,.43Z"/></g><rect class="g" x="14.12" y="20.01" width="5.5" height="3.34" rx=".42" ry=".42" transform="translate(2.93 45.34) rotate(-111.61)"/><rect class="g" x="16.61" y="18.69" width="7.16" height="3.34" transform="translate(-6.08 8.87) rotate(-21.61)"/><rect class="g" x="26.21" y="20.61" width="6.79" height="3.34" transform="translate(40.18 57.78) rotate(-143.54)"/><path class="g" d="M25.17,17.59c.77,0,1.4,.63,1.4,1.4s-.63,1.4-1.4,1.4-1.4-.63-1.4-1.4,.63-1.4,1.4-1.4m0-1.49c-1.6,0-2.9,1.3-2.9,2.9s1.3,2.9,2.9,2.9,2.9-1.3,2.9-2.9-1.3-2.9-2.9-2.9h0Z"/><path class="g" d="M31.08,23.37c-1.22,1.22-1.44,3.01-.59,4.21,.14,.19,.42,.21,.59,.04l4.26-4.26c.17-.17,.15-.45-.04-.59-1.2-.85-2.99-.63-4.21,.59Z"/></g></g></g></g></g></svg>